<svg width="99" height="34" viewBox="0 0 99 34" fill="none" xmlns="http://www.w3.org/2000/svg">
<path d="M35.3669 0.000741958L35.9096 0C36.3427 0.0771471 36.7728 0.216606 37.1307 0.478461C37.8046 0.949503 38.2064 1.76326 38.1959 2.57998C38.802 2.84777 39.3864 3.16822 39.9053 3.58215C40.7305 4.22677 41.382 5.09245 41.754 6.07014C42.1476 7.08641 42.2512 8.1954 42.164 9.27472C42.0544 10.5284 41.7085 11.7523 41.2329 12.9155C40.2773 15.2113 38.8758 17.3032 37.2656 19.1941C37.6234 18.5798 38.064 18.0168 38.43 17.4071C39.294 15.9925 40.1379 14.5504 40.7148 12.9911C41.1196 11.8866 41.3917 10.7175 41.3731 9.53657C41.3872 8.27848 41.101 6.9922 40.4152 5.92327C39.8009 4.98341 38.878 4.26905 37.8575 3.80988C37.7226 4.02426 37.575 4.23419 37.3871 4.40555C36.6297 5.12657 35.4101 5.27568 34.4873 4.79277C33.7992 4.4508 33.3064 3.78021 33.1469 3.0347C31.6373 3.10443 30.1502 3.40337 28.6719 3.70084C29.2124 4.16965 29.7618 4.63328 30.2441 5.16367C31.8699 6.88909 33.0642 9.01064 33.6986 11.2902C34.4463 13.9488 34.4194 16.8173 33.621 19.4611C32.9181 21.8148 31.6142 23.9883 29.8594 25.7145C28.7457 26.8168 27.4561 27.7566 26.0203 28.3976C26.027 28.4243 26.0397 28.4784 26.0456 28.5044C22.8566 30.393 19.4461 31.9367 15.8716 32.947C13.2945 33.6621 10.6131 34.122 7.93017 33.9714C6.25363 33.8706 4.55249 33.5145 3.0884 32.6644C1.9717 32.0227 1.03689 31.045 0.531465 29.8574C-0.0790679 28.4421 -0.117832 26.8398 0.18408 25.3451C0.474065 23.854 1.05105 22.4313 1.76073 21.0923C2.83569 19.0872 4.21479 17.258 5.73553 15.5689C8.70322 12.299 12.2203 9.5477 16.008 7.27853C19.6511 5.12064 23.5737 3.3789 27.708 2.39527C29.5187 1.97244 31.372 1.70317 33.2334 1.70169C33.378 1.37085 33.5495 1.0452 33.8074 0.787049C34.2144 0.351613 34.7832 0.0994013 35.3669 0.000741958ZM22.12 6.06718C17.5891 8.05149 13.3713 10.8288 9.98467 14.4413C8.43262 16.1045 6.98716 17.8855 5.84214 19.855C4.91478 21.481 4.18348 23.3036 4.24461 25.2041C4.26772 26.3457 4.60467 27.4903 5.25098 28.4391C5.97334 29.5006 7.08482 30.2424 8.26638 30.7157C9.71854 31.2928 11.2877 31.568 12.8502 31.5406C14.482 31.5309 16.1004 31.2787 17.7032 30.9961C20.0424 30.5592 22.3951 30.0607 24.5868 29.1127C24.2521 29.1809 23.939 29.33 23.6043 29.4005C21.1726 30.1163 18.5552 30.1935 16.0848 29.6208C12.517 28.813 9.28095 26.6358 7.22198 23.6241C8.37372 23.5966 9.52695 23.6181 10.6787 23.6063C12.5953 25.5817 15.1984 26.9028 17.9462 27.2107C17.7382 27.0208 17.4989 26.8687 17.2753 26.6996C15.847 25.6522 14.4187 24.6055 12.9904 23.5595C12.2717 23.0217 11.5315 22.5121 10.827 21.958C12.3142 21.9513 13.8029 21.9469 15.2901 21.9506C16.6737 23.7524 18.0476 25.5624 19.4476 27.3516C20.8259 25.5453 22.202 23.7361 23.5841 21.932C25.0691 21.9343 26.5548 21.9217 28.0398 21.9291C27.8847 22.073 27.7028 22.1842 27.5358 22.3133C25.491 23.8229 23.4447 25.3324 21.3999 26.842C21.2464 26.9548 21.0838 27.0594 20.9534 27.1996C23.6885 26.888 26.273 25.555 28.1799 23.5885C29.1125 23.5588 30.0503 23.5766 30.9851 23.5744C32.3582 21.7125 33.249 19.5019 33.5651 17.2149C33.9304 14.6053 33.5577 11.897 32.4834 9.48687C31.5136 7.28447 29.9571 5.34911 28.033 3.89593C26.0225 4.50643 24.0426 5.22004 22.12 6.06718Z" fill="#0000FD"/>
<path d="M10.5192 3.44714C13.51 1.19726 17.3849 0.134266 21.1099 0.590472C21.1256 0.602341 21.1576 0.623853 21.1726 0.635722C16.6946 2.41604 12.5006 4.87881 8.70471 7.83414C7.52762 8.75471 6.39601 9.73166 5.30391 10.7516C6.22456 7.8564 8.07256 5.26307 10.5192 3.44714Z" fill="#0000FD"/>
<path d="M15.4586 3.97679C17.6592 2.7365 19.9507 1.6594 22.3168 0.768504C22.618 0.8412 22.9192 0.921315 23.2256 0.972499C23.145 1.0949 22.9676 1.08599 22.8476 1.14831C18.6134 2.69051 14.6199 4.85879 10.9664 7.48253C9.12664 8.81183 7.36959 10.2569 5.74075 11.8354C5.42691 12.1299 5.13842 12.4496 4.81936 12.7389C4.86931 12.4073 4.8872 12.0401 5.05791 11.7486C8.15381 8.71021 11.6806 6.11539 15.4586 3.97679Z" fill="#0000FD"/>
<path d="M16.588 4.58135C18.9399 3.29656 21.3969 2.19795 23.939 1.34117C24.2729 1.17575 24.592 1.46876 24.9185 1.52959C24.8872 1.6505 24.7336 1.63567 24.6397 1.68018C22.0902 2.48651 19.6324 3.5636 17.2753 4.81799C13.4637 6.85868 9.90341 9.37857 6.76203 12.345C6.01732 13.0527 5.29571 13.7856 4.60914 14.5504C4.63225 14.2596 4.63151 13.9681 4.67921 13.6795C8.11803 10.0291 12.1935 6.99739 16.588 4.58135Z" fill="#0000FD"/>
<path d="M20.1356 12.5512C20.9161 12.0802 21.7317 11.6589 22.5837 11.3325C24.182 12.8116 25.3099 14.7944 25.7743 16.916C25.3389 16.9538 24.9073 17.0295 24.4787 17.1126C23.3269 15.3449 21.8524 13.7871 20.1356 12.5512Z" fill="#0000FD"/>
<path d="M13.059 16.9345C13.5383 14.8115 14.6498 12.8316 16.2391 11.3354C17.0867 11.6752 17.9052 12.0824 18.6887 12.549C16.992 13.8034 15.5048 15.3463 14.3747 17.1274C13.9379 17.0525 13.501 16.9753 13.059 16.9345Z" fill="#0000FD"/>
<path d="M15.2141 17.3084C16.3121 15.6216 17.7606 14.1639 19.4185 13.0193C21.0302 14.1305 22.4398 15.5333 23.5416 17.1489C23.5618 17.186 23.6028 17.2594 23.6229 17.2973C22.1745 17.62 20.7655 18.1229 19.4319 18.7705C18.0841 18.1355 16.6722 17.6266 15.2141 17.3084Z" fill="#0000FD"/>
<path d="M9.55677 17.6111C10.4096 17.5361 11.2654 17.5858 12.1182 17.6289C11.9713 18.7994 11.9542 19.993 12.1495 21.1583C11.4055 21.1554 10.6623 21.1672 9.91832 21.1569C9.15348 20.1614 8.98351 18.7371 9.55677 17.6111Z" fill="#0000FD"/>
<path d="M26.7262 17.6059C27.0826 17.5829 27.4397 17.5651 27.7967 17.5532C28.2947 17.5087 28.7934 17.5688 29.2921 17.5665C29.7528 18.5005 29.7573 19.6384 29.2795 20.5656C29.1669 20.7578 29.0797 20.9862 28.903 21.1264C28.1762 21.1376 27.4486 21.1264 26.7218 21.1353C26.8858 19.9663 26.8917 18.7757 26.7262 17.6059Z" fill="#0000FD"/>
<path d="M12.9121 17.7142C13.2543 17.7394 13.5934 17.798 13.9326 17.8492C13.5897 18.5042 13.2453 19.1607 12.9807 19.8513C12.9397 19.9618 12.892 20.0679 12.8368 20.1717C12.7585 19.3535 12.8047 18.5279 12.9121 17.7142Z" fill="#0000FD"/>
<path d="M24.9058 17.8499C25.2405 17.7572 25.5909 17.7223 25.9368 17.6993C26.0486 18.5109 26.0829 19.3328 26.0322 20.151C26.0143 20.1243 25.9793 20.0694 25.9622 20.0412C25.6602 19.289 25.3255 18.5457 24.9058 17.8499Z" fill="#0000FD"/>
<path d="M14.7668 18.0072C16.0453 18.2898 17.2932 18.6978 18.4986 19.2067C18.3905 19.3268 18.2347 19.384 18.099 19.4656C17.2648 19.947 16.4627 20.484 15.7061 21.0797C15.6464 21.1316 15.5741 21.168 15.4929 21.1561C14.7787 21.1561 14.0653 21.1539 13.3519 21.1613C13.6986 20.0605 14.1868 19.0056 14.7668 18.0072Z" fill="#0000FD"/>
<path d="M20.3414 19.2104C21.5513 18.6948 22.8021 18.2727 24.0888 17.9946C24.6583 18.9953 25.16 20.039 25.5037 21.1383C24.7567 21.1368 24.009 21.1361 23.2613 21.1435C22.5435 20.5923 21.801 20.0716 21.0182 19.6139C20.7976 19.4722 20.5523 19.3676 20.3414 19.2104Z" fill="#0000FD"/>
<path d="M47.6104 4.57616C48.4393 4.51014 49.2772 4.55316 50.1099 4.54797C50.3119 4.52127 50.388 4.73787 50.3604 4.90033C50.3641 6.56047 50.3648 8.2221 50.3693 9.88225C50.344 10.4245 50.8263 10.9371 51.3697 10.9542C51.7156 10.9623 52.1003 11.0001 52.394 10.7813C52.7347 10.5632 52.9046 10.1589 52.8912 9.76505C52.8942 8.13754 52.8853 6.51003 52.8853 4.88401C52.8949 4.76532 52.8733 4.53313 53.0575 4.54723C53.9237 4.53313 54.7974 4.50569 55.6621 4.55761C55.6852 4.59396 55.7307 4.66592 55.7523 4.70375C55.7799 5.97 55.759 7.23996 55.7694 8.50844C55.7583 9.15009 55.8127 9.79769 55.7083 10.4349C55.5205 11.4912 54.7735 12.4237 53.785 12.8487C52.8838 13.2671 51.8677 13.1054 50.9083 13.1387C49.7446 13.1543 48.5944 12.5297 48.004 11.5268C47.6789 11.0001 47.5321 10.3822 47.5299 9.76653C47.5194 8.18205 47.5269 6.59682 47.5157 5.01234C47.5209 4.86249 47.4948 4.69411 47.6104 4.57616Z" fill="#0000FD"/>
<path d="M57.5981 4.5361C58.4434 4.53684 59.2895 4.52646 60.1341 4.53388C60.3242 4.51311 60.4002 4.71933 60.3749 4.8751C60.3794 7.47882 60.3838 10.084 60.3883 12.6885C60.3928 12.8346 60.3481 12.9637 60.2504 13.0772C59.4505 13.0661 58.6514 13.0801 57.8523 13.0772C57.6875 13.1091 57.5339 12.9704 57.5615 12.8064C57.5466 10.2027 57.5533 7.59825 57.5421 4.99453C57.5392 4.83876 57.566 4.68595 57.5981 4.5361Z" fill="#0000FD"/>
<path d="M61.6459 4.70004C61.6593 4.49085 61.8889 4.53017 62.038 4.52052C64.4638 4.51978 66.8887 4.51236 69.3145 4.50866C69.4643 4.49901 69.7319 4.5272 69.7014 4.74232C69.7118 5.38175 69.7193 6.02193 69.7014 6.66136C69.6686 6.69993 69.603 6.77782 69.5694 6.81788C68.7442 6.90392 67.9056 6.80378 67.0766 6.87203C67.096 8.87934 67.096 10.8896 67.0893 12.8969C67.0527 12.9355 66.9789 13.0134 66.9432 13.052C66.0792 13.0549 65.2077 13.0935 64.3482 13.0371C64.3206 13 64.2647 12.9244 64.2379 12.8865C64.214 10.8777 64.2282 8.86821 64.2193 6.85942C63.4358 6.84755 62.6523 6.87203 61.8696 6.85422C61.7287 6.86684 61.6213 6.71551 61.6392 6.58643C61.6377 5.95887 61.6168 5.32686 61.6459 4.70004Z" fill="#0000FD"/>
<path d="M53.6033 23.6535C53.8148 24.1665 53.9212 24.7583 53.9223 25.4288C53.9233 25.9841 53.84 26.4976 53.6723 26.9694C53.4418 27.6194 53.0584 28.123 52.5221 28.4802C51.9857 28.8268 51.3385 29.0008 50.5804 29.0022C49.8223 29.0035 49.1639 28.8108 48.6052 28.4241C48.057 28.0374 47.6717 27.5142 47.4495 26.8545C47.3331 26.5614 47.264 26.1424 47.2419 25.5976C47.2417 25.4928 47.2943 25.4404 47.3996 25.4402L48.6157 25.4381C48.721 25.4379 48.7737 25.4902 48.7739 25.5949C48.7956 25.9721 48.8382 26.2497 48.9017 26.4277C49.0077 26.8151 49.203 27.1239 49.4877 27.3539C49.7829 27.5839 50.1464 27.6985 50.5781 27.6977C51.3783 27.6963 51.9146 27.3339 52.1871 26.6105C52.3234 26.296 52.3912 25.8872 52.3903 25.3843C52.3893 24.85 52.3043 24.3734 52.1351 23.9546C51.8391 23.3055 51.3121 22.9817 50.554 22.983C50.375 22.9833 50.1488 23.0623 49.8753 23.2199C49.8332 23.2409 49.8016 23.2515 49.7806 23.2515C49.7279 23.2516 49.6858 23.2255 49.6541 23.1731L49.0525 22.357C49.0314 22.3151 49.0208 22.2784 49.0207 22.247C49.0207 22.2156 49.0364 22.1789 49.0679 22.1369L51.7635 19.2562C51.795 19.2037 51.7844 19.1776 51.7318 19.1777L47.5307 19.185C47.4254 19.1852 47.3727 19.1329 47.3725 19.0281L47.3708 18.038C47.3706 17.9332 47.4231 17.8807 47.5284 17.8806L53.6563 17.8699C53.7616 17.8697 53.8143 17.922 53.8145 18.0267L53.8165 19.1583C53.8166 19.2107 53.7904 19.2736 53.7379 19.347L51.3419 21.9601C51.3208 21.9811 51.3156 22.002 51.3262 22.023C51.3367 22.0334 51.3578 22.0439 51.3894 22.0543C51.9265 22.1057 52.3795 22.2726 52.7485 22.5548C53.1175 22.8266 53.4025 23.1928 53.6033 23.6535Z" fill="#0000FD"/>
<path d="M56.2882 28.8665C56.1829 28.8667 56.1301 28.8144 56.13 28.7096L56.1111 18.0227C56.111 17.918 56.1635 17.8655 56.2688 17.8653L60.0908 17.8586C61.1859 17.8567 62.0603 18.1433 62.7141 18.7184C63.3679 19.2831 63.6956 20.0421 63.6973 20.9956L63.7056 25.7103C63.7073 26.6638 63.3822 27.4292 62.7305 28.0066C62.0786 28.5735 61.2052 28.8579 60.1102 28.8598L56.2882 28.8665ZM57.644 27.4968C57.6441 27.5387 57.6652 27.5597 57.7073 27.5596L60.1711 27.5553C60.7818 27.5542 61.2658 27.37 61.6231 27.0027C61.991 26.6249 62.1796 26.1216 62.189 25.493L62.1815 21.2182C62.1804 20.5896 61.9953 20.0922 61.6261 19.7262C61.2675 19.3496 60.7775 19.1619 60.1563 19.163L57.6925 19.1673C57.6504 19.1673 57.6294 19.1883 57.6294 19.2302L57.644 27.4968Z" fill="#0000FD"/>
<path d="M70.9819 28.8409C70.8871 28.841 70.8239 28.7992 70.7921 28.7155L68.2042 21.0191L68.1883 20.9563C68.1882 20.8829 68.2355 20.8462 68.3302 20.846L69.6569 20.8437C69.7517 20.8435 69.8149 20.8853 69.8466 20.9691L71.594 26.6553C71.6045 26.6762 71.6203 26.6866 71.6414 26.6866C71.6625 26.6866 71.6782 26.6761 71.6887 26.6551L73.4002 20.9629C73.4316 20.879 73.4947 20.837 73.5895 20.8369L74.9162 20.8503C75.032 20.8501 75.0742 20.9076 75.0428 21.0229L72.4978 28.7125C72.4664 28.7964 72.4033 28.8384 72.3085 28.8385L70.9819 28.8409Z" fill="#0000FD"/>
<path d="M77.5232 19.5727C77.2284 19.5732 76.9861 19.4793 76.7962 19.2911C76.6064 19.1028 76.5112 18.862 76.5107 18.5687C76.5101 18.2753 76.6045 18.0341 76.7937 17.8452C76.9829 17.6563 77.2249 17.5616 77.5197 17.5611C77.8145 17.5606 78.0568 17.6544 78.2467 17.8427C78.4365 18.0309 78.5317 18.2718 78.5322 18.5651C78.5327 18.8585 78.4384 19.0996 78.2492 19.2886C78.06 19.4775 77.818 19.5722 77.5232 19.5727ZM76.9078 28.8148C76.8025 28.815 76.7497 28.7627 76.7495 28.6579L76.736 20.9885C76.7358 20.8838 76.7884 20.8313 76.8937 20.8311L78.094 20.829C78.1993 20.8288 78.252 20.8811 78.2522 20.9859L78.2657 28.6553C78.2659 28.76 78.2134 28.8125 78.1081 28.8127L76.9078 28.8148Z" fill="#0000FD"/>
<path d="M87.1471 23.815C87.19 24.2445 87.2067 24.7264 87.1971 25.2607C87.1973 25.3655 87.1447 25.418 87.0394 25.4182L82.0013 25.427C81.9592 25.427 81.9381 25.448 81.9382 25.4899C81.9388 25.8462 81.9709 26.1185 82.0344 26.307C82.151 26.7259 82.3832 27.0555 82.7311 27.2959C83.0895 27.5258 83.5372 27.6403 84.0741 27.6393C84.8533 27.638 85.4529 27.3174 85.8729 26.6775C85.9254 26.5726 85.9938 26.5568 86.0781 26.63L86.9794 27.2256C87.0532 27.2884 87.0691 27.3564 87.0272 27.4299C86.7332 27.9018 86.3127 28.2745 85.7656 28.5479C85.2291 28.8212 84.6187 28.9585 83.9343 28.9597C83.1657 28.961 82.5179 28.7945 81.9908 28.4602C81.4638 28.1258 81.0681 27.6498 80.8038 27.0321C80.55 26.4144 80.4223 25.6655 80.4208 24.7854C80.4194 24.0205 80.4763 23.4389 80.5914 23.0406C80.7797 22.3173 81.1577 21.7457 81.7256 21.3256C82.2934 20.9055 82.9827 20.6947 83.7934 20.6933C84.8568 20.6915 85.6523 20.9573 86.1796 21.4907C86.707 22.0136 87.0295 22.7884 87.1471 23.815ZM83.7957 21.9977C83.3429 21.9985 82.9694 22.1144 82.675 22.3455C82.3805 22.566 82.181 22.8649 82.0764 23.2423C82.0031 23.4729 81.9562 23.7664 81.9358 24.1227C81.9359 24.1646 81.957 24.1855 81.9991 24.1854L85.6158 24.1791C85.6579 24.179 85.6789 24.158 85.6789 24.1161C85.6572 23.7704 85.6252 23.5138 85.5828 23.3462C85.4767 22.9378 85.2656 22.6133 84.9493 22.3729C84.6435 22.122 84.259 21.9969 83.7957 21.9977Z" fill="#0000FD"/>
<path d="M90.6235 28.8066C90.5393 28.8067 90.4813 28.7649 90.4496 28.6812L88.1617 20.9843L88.1458 20.9372C88.1457 20.8534 88.1983 20.8114 88.3035 20.8112L89.5354 20.809C89.6302 20.8089 89.6882 20.8559 89.7094 20.9502L91.2199 26.6525C91.2304 26.6734 91.241 26.6839 91.2515 26.6838C91.2726 26.6838 91.2883 26.6733 91.2988 26.6523L92.8207 20.9447C92.8416 20.8504 92.8995 20.8032 92.9942 20.803L94.084 20.8011C94.1787 20.8009 94.2367 20.848 94.258 20.9422L95.8316 26.6287C95.8421 26.6496 95.8527 26.6601 95.8632 26.6601C95.8843 26.66 95.9 26.6495 95.9105 26.6286L97.4641 20.9366C97.485 20.8423 97.5428 20.7951 97.6375 20.7949L98.8537 20.8085C98.9063 20.8084 98.9432 20.8241 98.9643 20.8555C98.996 20.8868 99.0066 20.9287 98.9961 20.9811L96.7196 28.6702C96.6882 28.7541 96.6303 28.7961 96.5461 28.7963L95.3142 28.7984C95.23 28.7986 95.172 28.7567 95.1402 28.673L93.5831 23.3637C93.5725 23.3428 93.5567 23.3323 93.5357 23.3323C93.5251 23.3324 93.5146 23.3429 93.5041 23.3638L92.0447 28.6627C92.0238 28.757 91.966 28.8042 91.8712 28.8044L90.6235 28.8066Z" fill="#0000FD"/>
</svg>
